# xmcd CD database file
#
# Track frame offsets:
#	150
#	28308
#	52439
#	78831
#	108360
#	132038
#	162751
#	185863
#	218452
#	242043
#	266253
#	295149
#	324677
#
# Disc length: 4796 seconds
#
# Revision: 0
# Processed by: cddbd v1.5.1PL2 Copyright (c) Steve Scherf et al.
# Submitted via: CDex 1.51
#
DISCID=bb12ba0d
DTITLE=Dust_Box_49 - Alternative
DYEAR=2005
DGENRE=Game
TTITLE0=Monochromatic Satellite
TTITLE1=Sylphidia
TTITLE2=Horizotal
TTITLE3=Assault to Glory i
TTITLE4=Metro
TTITLE5=Reaches Phantasia
TTITLE6=it was Heavenly
TTITLE7=Solitude Parade
TTITLE8=VIVIT
TTITLE9=Mad Rhapsody
TTITLE10=Assault to Glory ii
TTITLE11=Wheel of Destiny
TTITLE12=Another Daybreak
EXTD=YEAR: 2005
EXTT0=
EXTT1=
EXTT2=
EXTT3=
EXTT4=
EXTT5=
EXTT6=
EXTT7=
EXTT8=
EXTT9=
EXTT10=
EXTT11=
EXTT12=
PLAYORDER=
